<?xml version="1.0" encoding="utf-8"?>
<!-- Generator: Adobe Illustrator 23.1.1, SVG Export Plug-In . SVG Version: 6.00 Build 0)  -->
<svg version="1.1" id="Layer_1" xmlns="http://www.w3.org/2000/svg" xmlns:xlink="http://www.w3.org/1999/xlink" x="0px" y="0px"
	 viewBox="0 0 232 494" style="enable-background:new 0 0 232 494;" xml:space="preserve">
<style type="text/css">
	.st0{fill-rule:evenodd;clip-rule:evenodd;fill:#FFFFFF;}
	.st1{fill:#FFFFFF;}
</style>
<title>Group 3</title>
<desc>Created with Sketch.</desc>
<path class="st0" d="M118.5,113C81.2,113,0,127.1,0,231.5s72.5,262,118.5,262S232,335.9,232,231.5S155.8,113,118.5,113z M116,275
	c-21,0-38-17-38-38s17-38,38-38s38,17,38,38S137,275,116,275z"/>
<g id="Group-Copy" transform="translate(50.000000, 0.000000)">
	<path id="Oval" class="st1" d="M66.4,99c22.3-6.7,40.1-19.2,53.1-37.3s19.1-38.6,17.9-61.3c-22.3,6.7-40.1,19.2-53.1,37.3
		S65.3,76.3,66.4,99z"/>
	<path id="Oval-Copy" class="st1" d="M66.4,99c0.8-17-3.6-32.3-13.5-45.9S29.8,30.1,13.1,25c-0.9,17,3.6,32.4,13.4,46
		S49.6,93.9,66.4,99z"/>
</g>
</svg>
